<?xml version="1.0" encoding="UTF-8" standalone="no"?>
<!DOCTYPE svg PUBLIC "-//W3C//DTD SVG 1.1//EN" "http://www.w3.org/Graphics/SVG/1.1/DTD/svg11.dtd">
<svg width="100%" height="100%" viewBox="0 0 2702 811" version="1.1" xmlns="http://www.w3.org/2000/svg" xmlns:xlink="http://www.w3.org/1999/xlink" xml:space="preserve" xmlns:serif="http://www.serif.com/" style="fill-rule:evenodd;clip-rule:evenodd;stroke-linejoin:round;stroke-miterlimit:2;">
    <g transform="matrix(-0.65609,0,0,0.718505,2742.48,-756.777)">
        <path d="M2010.75,1811.54C2010.75,1826.78 2017.38,1841.41 2029.19,1852.19C2040.99,1862.97 2057.01,1869.03 2073.7,1869.03L2353.99,1869.03C2370.69,1869.03 2386.7,1862.97 2398.51,1852.19C2410.32,1841.41 2416.95,1826.78 2416.95,1811.54L2416.95,1768.13C2416.95,1729.51 2392.93,1694.25 2355,1677.19C2282.64,1644.62 2162.98,1590.78 2085.52,1555.93C2069.45,1548.69 2050.42,1549.55 2035.21,1558.19C2020,1566.84 2010.75,1582.04 2010.75,1598.4L2010.75,1811.54Z" style="fill:#fec600;"/>
    </g>
    <g transform="matrix(0.530396,0,0,0.530396,-173.704,-351.039)">
        <path d="M891.345,1064.5L891.345,1615.57C891.345,1676.02 936.205,1727.08 996.153,1734.87C1229.58,1765.18 1792.08,1838.23 2051.94,1871.98C2086.26,1876.43 2120.83,1865.9 2146.83,1843.06C2172.83,1820.22 2187.73,1787.28 2187.73,1752.68L2187.73,1507.43C2187.73,1435.46 2142.98,1371.07 2075.52,1346C1832.52,1255.66 1259.5,1042.62 1010.42,950.027C938.728,923.375 858.028,943.78 807.622,1001.3C658.459,1171.52 362.206,1509.6 362.206,1509.6L362.206,1550.06C362.206,1550.06 658.69,1225.68 807.796,1062.54C858.32,1007.26 937.274,988.055 1007.54,1013.96C1239.23,1099.36 1756.05,1289.87 1984.81,1374.2C2052.5,1399.15 2097.47,1463.65 2097.47,1535.79L2097.47,1680.51C2097.47,1715.22 2082.47,1748.24 2056.34,1771.08C2030.21,1793.93 1995.48,1804.37 1961.08,1799.73C1750.28,1771.29 1349.89,1717.28 1160.53,1691.74C1100.85,1683.69 1056.31,1632.74 1056.31,1572.52C1056.31,1407.93 1056.31,1108.08 1056.31,1108.08L891.345,1064.5Z" style="fill:#282828;"/>
    </g>
    <g transform="matrix(1,0,0,1,-343.798,-1238.41)">
        <path d="M1906.25,1520.83C1906.25,1505.8 1897.01,1491.58 1883.63,1480.11C1857.17,1457.57 1820.11,1452.28 1788.4,1466.52C1714.21,1499.83 1519.06,1588.58 1462.79,1623.41C1431.31,1642.89 1397.56,1677.28 1397.56,1713.28L1397.56,1824.38C1397.56,1860.38 1426.79,1889.61 1462.79,1889.61C1462.79,1889.61 1710.95,1889.62 1835.99,1889.62C1854.62,1889.62 1872.5,1882.22 1885.67,1869.04C1898.85,1855.87 1906.25,1838 1906.25,1819.36L1906.25,1520.83ZM1817.28,1552.84C1817.28,1523.6 1799.92,1512.66 1779.81,1518.73C1724.38,1535.45 1555.68,1620.74 1500.26,1653.17C1477.21,1666.66 1442.18,1684.04 1442.18,1713.28L1442.18,1812.15C1442.18,1841.4 1471.02,1865.14 1500.26,1865.14L1779.81,1865.14C1809.05,1865.14 1817.28,1841.4 1817.28,1812.15L1817.28,1552.84Z" style="fill:#282828;"/>
    </g>
    <g transform="matrix(0.530396,0,0,0.530396,-173.704,-351.039)">
        <path d="M362.206,1583.07L810.418,1153.77L810.418,1228.49L362.206,1621.65L362.206,1583.07Z" style="fill:#fec600;"/>
    </g>
    <g transform="matrix(0.530396,0,0,0.530396,-173.704,-312.495)">
        <path d="M362.206,1583.07L810.418,1240.32L810.418,1315.04L362.206,1621.65L362.206,1583.07Z" style="fill:#fec600;"/>
    </g>
    <g transform="matrix(0.530396,0,0,0.530396,-173.704,-272.599)">
        <path d="M362.206,1583.07L810.418,1321.91L810.418,1396.64L362.206,1621.65L362.206,1583.07Z" style="fill:#fec600;"/>
    </g>
    <g transform="matrix(0.530396,0,0,0.530396,-173.704,-232.026)">
        <path d="M362.206,1583.07L810.418,1397.27L810.418,1471.99L362.206,1621.65L362.206,1583.07Z" style="fill:#fec600;"/>
    </g>
    <g transform="matrix(1,0,0,1,-287.936,-1238.41)">
        <path d="M2015.64,1889.61L1924.93,1889.61L1924.93,1609.21C1924.93,1573.22 1942.28,1539.44 1971.52,1518.47C2000.77,1497.5 2038.33,1491.9 2072.42,1503.45C2168.34,1535.93 2289.47,1576.95 2366.43,1603.01C2411.77,1618.37 2442.28,1660.91 2442.28,1708.78L2442.28,1889.61L2405.83,1889.61L2405.83,1748.39C2405.83,1695.84 2388.62,1655.62 2345.65,1637.41C2320.28,1626.66 2202.06,1590.37 2124.32,1564.9C2061.89,1544.45 2014.87,1554.04 2015.64,1628.7L2015.64,1889.61Z" style="fill:#282828;"/>
    </g>
    <g transform="matrix(1,0,0,-1,295.079,2279.9)">
        <path d="M2334.11,1653.17C2353.25,1653.17 2371.61,1645.53 2385.1,1631.95C2398.6,1618.36 2406.12,1599.96 2405.99,1580.81C2405.65,1529.26 2405.26,1469.05 2405.26,1469.05L2364.13,1469.05C2364.13,1469.05 2364.63,1535.44 2364.99,1582.6C2365.08,1594.79 2360.3,1606.52 2351.71,1615.17C2343.12,1623.83 2331.43,1628.69 2319.24,1628.69C2237.53,1628.69 2075.8,1628.7 2075.8,1628.7C2056.71,1628.7 2017.59,1627.54 1986.78,1661.4C1965.84,1682.34 1954.07,1710.75 1954.07,1740.36L1954.07,1863.93L2005.04,1851.36L2005.04,1748.39C2005.04,1695.84 2047.71,1653.17 2100.27,1653.17L2334.11,1653.17Z" style="fill:#282828;"/>
    </g>
    <g transform="matrix(1,0,0,1,-343.798,-1238.41)">
        <path d="M3045.34,1799.54L3045.34,1816.82C3045.34,1827.67 3041.35,1838.14 3034.13,1846.25C3031.59,1849.1 3029.62,1851.32 3029.62,1851.32C3021.94,1843.47 3014.48,1839.56 3003.01,1836.77C3003.01,1836.77 3006.73,1832.14 3010.32,1827.66C3014.61,1822.32 3016.94,1815.68 3016.94,1808.84C3016.94,1801.02 3016.94,1791.72 3016.94,1791.72L3045.34,1799.54Z" style="fill:#282828;"/>
    </g>
    <g transform="matrix(1,0,0,-1,274.818,2279.9)">
        <path d="M1986.78,1661.4C1988.25,1659.94 1989.75,1658.51 1991.29,1657.14C1992.83,1655.77 1994.41,1654.44 1996.02,1653.17C1996.02,1653.17 1978.45,1670.56 1986.78,1661.4Z" style="fill:#353535;"/>
    </g>
    <g transform="matrix(1,0,0,1,-287.936,-1238.41)">
        <path d="M2088.62,1889.62L2088.62,1657.83C2088.62,1647.54 2093.42,1637.84 2101.6,1631.6C2109.78,1625.36 2120.41,1623.3 2130.33,1626.02C2182.38,1640.31 2270.96,1664.63 2323.87,1679.16C2349.63,1686.23 2367.48,1709.64 2367.48,1736.35C2367.48,1794.93 2367.48,1889.62 2367.48,1889.62L2088.62,1889.62Z" style="fill:#fec600;"/>
    </g>
    <g transform="matrix(1,0,0,1,-287.936,-1238.41)">
        <path d="M2631.74,1684.9L2920.12,1778.69C2920.12,1778.69 2918.31,1783.29 2915.81,1789.64C2907.09,1811.84 2885.59,1826.37 2861.74,1826.2C2816.16,1825.87 2740.92,1825.33 2688.97,1824.95C2657.3,1824.72 2631.74,1798.98 2631.74,1767.3L2631.74,1684.9Z" style="fill:#fec600;"/>
    </g>
    <g transform="matrix(2.81071,0,7.43891e-15,2.44827,-1225.65,-4980.17)">
        <g transform="matrix(50,0,0,50,447.869,2365.35)">
            <path d="M0.684,-0.484C0.684,-0.485 0.683,-0.486 0.682,-0.487C0.682,-0.488 0.681,-0.488 0.679,-0.488L0.018,-0.488C0.017,-0.488 0.016,-0.488 0.015,-0.487C0.015,-0.486 0.014,-0.485 0.014,-0.484L0.014,-0.409C0.014,-0.408 0.015,-0.407 0.015,-0.406C0.016,-0.405 0.017,-0.405 0.018,-0.405L0.586,-0.405L0.586,-0.377C0.586,-0.367 0.583,-0.358 0.577,-0.351C0.57,-0.343 0.563,-0.338 0.553,-0.336L0.099,-0.239C0.07,-0.232 0.046,-0.217 0.028,-0.194C0.009,-0.172 0,-0.145 0,-0.116L0,-0.004C0,-0.003 0,-0.002 0.001,-0.001C0.002,-0 0.003,-0 0.004,-0L0.666,-0C0.667,-0 0.667,-0 0.668,-0.001C0.669,-0.002 0.669,-0.003 0.669,-0.004L0.669,-0.08C0.669,-0.081 0.669,-0.082 0.668,-0.083C0.667,-0.084 0.667,-0.084 0.666,-0.084L0.098,-0.084L0.098,-0.112C0.098,-0.122 0.101,-0.13 0.107,-0.138C0.113,-0.145 0.121,-0.15 0.131,-0.152L0.584,-0.25C0.614,-0.256 0.638,-0.271 0.656,-0.294C0.674,-0.317 0.684,-0.343 0.684,-0.373L0.684,-0.484Z" style="fill:#282828;fill-rule:nonzero;"/>
        </g>
        <g transform="matrix(50,0,0,50,553.787,2365.35)">
            <path d="M0,-0.484C0,-0.485 0,-0.486 0.001,-0.487C0.002,-0.488 0.003,-0.488 0.004,-0.488L0.558,-0.488C0.597,-0.488 0.629,-0.475 0.656,-0.448C0.684,-0.42 0.697,-0.388 0.697,-0.349L0.697,-0.3C0.697,-0.262 0.684,-0.229 0.656,-0.201C0.629,-0.174 0.597,-0.161 0.558,-0.161L0.098,-0.161L0.098,-0.004C0.098,-0.003 0.097,-0.002 0.096,-0.001C0.096,-0 0.095,-0 0.093,-0L0.004,-0C0.003,-0 0.002,-0 0.001,-0.001C0,-0.002 0,-0.003 0,-0.004L0,-0.484ZM0.558,-0.244C0.569,-0.244 0.579,-0.248 0.587,-0.257C0.596,-0.265 0.6,-0.275 0.6,-0.286L0.6,-0.363C0.6,-0.375 0.596,-0.384 0.587,-0.393C0.579,-0.401 0.569,-0.405 0.558,-0.405L0.098,-0.405L0.098,-0.244L0.558,-0.244Z" style="fill:#282828;fill-rule:nonzero;"/>
        </g>
        <g transform="matrix(50,0,0,50,615.975,2365.35)">
            <path d="M0.071,-0.163L-0,-0.103L0,-0.208L0.071,-0.269L0.071,-0.486L0.166,-0.486L0.166,-0.349L0.328,-0.486L0.328,-0.381L0.166,-0.244L0.166,-0.084L0.521,-0.084L0.521,-0L0.071,-0L0.071,-0.163Z" style="fill:#282828;fill-rule:nonzero;"/>
        </g>
        <g transform="matrix(50,0,0,50,663.782,2365.35)">
            <path d="M0.446,-0.451C0.472,-0.476 0.502,-0.488 0.535,-0.488L0.73,-0.488C0.731,-0.488 0.732,-0.488 0.733,-0.487C0.734,-0.486 0.734,-0.485 0.734,-0.484L0.734,-0.004C0.734,-0.003 0.734,-0.002 0.733,-0.001C0.732,-0 0.731,-0 0.73,-0L0.641,-0C0.64,-0 0.639,-0 0.638,-0.001C0.637,-0.002 0.637,-0.003 0.637,-0.004L0.637,-0.404L0.555,-0.404C0.544,-0.404 0.534,-0.4 0.526,-0.392L0.132,-0.001C0.131,-0 0.13,-0 0.129,-0L0.005,-0C0.003,-0 0.002,-0.001 0.001,-0.002C0,-0.004 0.001,-0.006 0.002,-0.007L0.446,-0.451Z" style="fill:#282828;fill-rule:nonzero;"/>
        </g>
        <g transform="matrix(50,0,0,50,727.825,2365.35)">
            <path d="M0.098,-0.363C0.098,-0.375 0.102,-0.384 0.11,-0.393C0.118,-0.401 0.128,-0.405 0.139,-0.405L0.666,-0.405C0.667,-0.405 0.667,-0.405 0.668,-0.406C0.669,-0.407 0.669,-0.408 0.669,-0.409L0.669,-0.484C0.669,-0.485 0.669,-0.486 0.668,-0.487C0.667,-0.488 0.667,-0.488 0.666,-0.488L0.139,-0.488C0.101,-0.488 0.068,-0.475 0.041,-0.448C0.014,-0.42 0,-0.388 0,-0.349L0,-0.342C0,-0.303 0.014,-0.271 0.041,-0.243C0.068,-0.216 0.101,-0.203 0.139,-0.203L0.558,-0.203C0.569,-0.203 0.579,-0.198 0.587,-0.19C0.596,-0.182 0.6,-0.172 0.6,-0.161L0.6,-0.125C0.6,-0.114 0.596,-0.104 0.587,-0.096C0.579,-0.088 0.569,-0.084 0.558,-0.084L0.032,-0.084C0.031,-0.084 0.03,-0.084 0.029,-0.083C0.028,-0.082 0.028,-0.081 0.028,-0.08L0.028,-0.004C0.028,-0.003 0.028,-0.002 0.029,-0.001C0.03,-0 0.031,-0 0.032,-0L0.558,-0C0.597,-0 0.629,-0.014 0.656,-0.041C0.684,-0.068 0.697,-0.101 0.697,-0.14L0.697,-0.146C0.697,-0.185 0.684,-0.218 0.656,-0.245C0.629,-0.273 0.597,-0.286 0.558,-0.286L0.139,-0.286C0.128,-0.286 0.118,-0.29 0.11,-0.298C0.102,-0.306 0.098,-0.316 0.098,-0.328L0.098,-0.363Z" style="fill:#282828;fill-rule:nonzero;"/>
        </g>
        <g transform="matrix(50,0,0,50,790.013,2365.35)">
            <path d="M0.624,-0.184C0.614,-0.204 0.6,-0.222 0.583,-0.237C0.6,-0.252 0.614,-0.27 0.624,-0.291L0.708,-0.468C0.709,-0.47 0.709,-0.471 0.708,-0.472C0.707,-0.474 0.706,-0.474 0.705,-0.474L0.606,-0.474C0.604,-0.474 0.603,-0.473 0.602,-0.472L0.529,-0.319C0.523,-0.306 0.514,-0.297 0.503,-0.29C0.492,-0.282 0.48,-0.279 0.466,-0.279L0.098,-0.279L0.098,-0.484C0.098,-0.485 0.097,-0.486 0.096,-0.487C0.096,-0.488 0.095,-0.488 0.093,-0.488L0.004,-0.488C0.003,-0.488 0.002,-0.488 0.001,-0.487C0,-0.486 0,-0.485 0,-0.484L0,-0.004C0,-0.003 0,-0.002 0.001,-0.001C0.002,-0 0.003,-0 0.004,-0L0.093,-0C0.095,-0 0.096,-0 0.096,-0.001C0.097,-0.002 0.098,-0.003 0.098,-0.004L0.098,-0.195L0.466,-0.195C0.48,-0.195 0.492,-0.192 0.503,-0.185C0.514,-0.177 0.523,-0.168 0.529,-0.156L0.602,-0.002C0.603,-0.001 0.604,-0 0.606,-0L0.705,-0C0.706,-0 0.707,-0.001 0.708,-0.002C0.709,-0.003 0.709,-0.005 0.708,-0.006L0.624,-0.184Z" style="fill:#282828;fill-rule:nonzero;"/>
        </g>
        <g transform="matrix(50,0,0,50,852.81,2365.35)">
            <path d="M0.098,-0.484C0.098,-0.485 0.097,-0.486 0.096,-0.487C0.096,-0.488 0.095,-0.488 0.093,-0.488L0.004,-0.488C0.003,-0.488 0.002,-0.488 0.001,-0.487C0,-0.486 0,-0.485 0,-0.484L0,-0.004C0,-0.003 0,-0.002 0.001,-0.001C0.002,-0 0.003,-0 0.004,-0L0.093,-0C0.095,-0 0.096,-0 0.096,-0.001C0.097,-0.002 0.098,-0.003 0.098,-0.004L0.098,-0.484Z" style="fill:#282828;fill-rule:nonzero;"/>
        </g>
        <g transform="matrix(50,0,0,50,885.017,2365.35)">
            <path d="M0.726,-0.484C0.726,-0.485 0.725,-0.486 0.724,-0.487C0.724,-0.488 0.722,-0.488 0.721,-0.488L0.542,-0.488C0.539,-0.488 0.535,-0.488 0.532,-0.488C0.514,-0.486 0.497,-0.479 0.484,-0.467C0.47,-0.455 0.46,-0.44 0.453,-0.422L0.363,-0.163L0.272,-0.422C0.266,-0.44 0.256,-0.455 0.242,-0.467C0.228,-0.479 0.212,-0.486 0.193,-0.488C0.19,-0.488 0.187,-0.488 0.184,-0.488L0.004,-0.488C0.003,-0.488 0.002,-0.488 0.001,-0.487C0,-0.486 0,-0.485 0,-0.484L0,-0.004C0,-0.003 0,-0.002 0.001,-0.001C0.002,-0 0.003,-0 0.004,-0L0.093,-0C0.095,-0 0.096,-0 0.096,-0.001C0.097,-0.002 0.098,-0.003 0.098,-0.004L0.098,-0.405L0.151,-0.405C0.169,-0.405 0.182,-0.395 0.191,-0.376L0.322,-0.003C0.323,-0.001 0.325,-0 0.326,-0L0.399,-0C0.401,-0 0.402,-0.001 0.403,-0.003L0.535,-0.376C0.543,-0.395 0.556,-0.405 0.574,-0.405L0.628,-0.405L0.628,-0.004C0.628,-0.003 0.628,-0.002 0.629,-0.001C0.63,-0 0.631,-0 0.632,-0L0.721,-0C0.722,-0 0.724,-0 0.724,-0.001C0.725,-0.002 0.726,-0.003 0.726,-0.004L0.726,-0.484Z" style="fill:#282828;fill-rule:nonzero;"/>
        </g>
        <g transform="matrix(50,0,0,50,993.035,2365.35)">
            <path d="M0.558,-0.488C0.596,-0.488 0.629,-0.475 0.656,-0.448C0.684,-0.42 0.697,-0.387 0.697,-0.349L0.697,-0.14C0.697,-0.101 0.684,-0.068 0.656,-0.041C0.629,-0.014 0.596,-0 0.558,-0L0.004,-0C0.003,-0 0.002,-0 0.001,-0.001C0,-0.002 0,-0.003 0,-0.004L0,-0.484C0,-0.485 0,-0.486 0.001,-0.487C0.002,-0.488 0.003,-0.488 0.004,-0.488L0.558,-0.488ZM0.6,-0.363C0.6,-0.374 0.596,-0.384 0.587,-0.392C0.579,-0.401 0.569,-0.405 0.558,-0.405L0.098,-0.405L0.098,-0.083L0.558,-0.083C0.569,-0.083 0.579,-0.088 0.587,-0.096C0.596,-0.104 0.6,-0.114 0.6,-0.125L0.6,-0.363Z" style="fill:#282828;fill-rule:nonzero;"/>
        </g>
        <g transform="matrix(50,0,0,50,1055.22,2365.35)">
            <path d="M0.446,-0.451C0.472,-0.476 0.502,-0.488 0.535,-0.488L0.73,-0.488C0.731,-0.488 0.732,-0.488 0.733,-0.487C0.734,-0.486 0.734,-0.485 0.734,-0.484L0.734,-0.004C0.734,-0.003 0.734,-0.002 0.733,-0.001C0.732,-0 0.731,-0 0.73,-0L0.641,-0C0.64,-0 0.639,-0 0.638,-0.001C0.637,-0.002 0.637,-0.003 0.637,-0.004L0.637,-0.404L0.555,-0.404C0.544,-0.404 0.534,-0.4 0.526,-0.392L0.132,-0.001C0.131,-0 0.13,-0 0.129,-0L0.005,-0C0.003,-0 0.002,-0.001 0.001,-0.002C0,-0.004 0.001,-0.006 0.002,-0.007L0.446,-0.451Z" style="fill:#282828;fill-rule:nonzero;"/>
        </g>
        <g transform="matrix(50,0,0,50,1119.27,2365.35)">
            <path d="M0.14,-0.083C0.128,-0.083 0.118,-0.088 0.11,-0.096C0.102,-0.104 0.098,-0.114 0.098,-0.125L0.098,-0.363C0.098,-0.374 0.102,-0.384 0.11,-0.392C0.118,-0.401 0.128,-0.405 0.14,-0.405L0.693,-0.405C0.695,-0.405 0.696,-0.405 0.697,-0.406C0.697,-0.407 0.698,-0.408 0.698,-0.409L0.698,-0.484C0.698,-0.485 0.697,-0.486 0.697,-0.487C0.696,-0.488 0.695,-0.488 0.693,-0.488L0.14,-0.488C0.101,-0.488 0.068,-0.475 0.041,-0.448C0.014,-0.42 0,-0.387 0,-0.349L0,-0.14C0,-0.101 0.014,-0.068 0.041,-0.041C0.068,-0.014 0.101,-0 0.14,-0L0.693,-0C0.695,-0 0.696,-0 0.697,-0.001C0.697,-0.002 0.698,-0.003 0.698,-0.004L0.698,-0.08C0.698,-0.081 0.697,-0.081 0.697,-0.082C0.696,-0.083 0.695,-0.083 0.693,-0.083L0.14,-0.083Z" style="fill:#282828;fill-rule:nonzero;"/>
        </g>
        <g transform="matrix(50,0,0,50,1181.48,2365.35)">
            <path d="M0.698,-0.484C0.698,-0.485 0.697,-0.486 0.697,-0.487C0.696,-0.488 0.695,-0.488 0.693,-0.488L0.604,-0.488C0.603,-0.488 0.602,-0.488 0.601,-0.487C0.601,-0.486 0.6,-0.485 0.6,-0.484L0.6,-0.286L0.098,-0.286L0.098,-0.484C0.098,-0.485 0.097,-0.486 0.096,-0.487C0.096,-0.488 0.095,-0.488 0.094,-0.488L0.004,-0.488C0.003,-0.488 0.002,-0.488 0.001,-0.487C0,-0.486 0,-0.485 0,-0.484L0,-0.004C0,-0.003 0,-0.002 0.001,-0.001C0.002,-0 0.003,-0 0.004,-0L0.094,-0C0.095,-0 0.096,-0 0.096,-0.001C0.097,-0.002 0.098,-0.003 0.098,-0.004L0.098,-0.202L0.6,-0.202L0.6,-0.004C0.6,-0.003 0.601,-0.002 0.601,-0.001C0.602,-0 0.603,-0 0.604,-0L0.693,-0C0.695,-0 0.696,-0 0.697,-0.001C0.697,-0.002 0.698,-0.003 0.698,-0.004L0.698,-0.484Z" style="fill:#282828;fill-rule:nonzero;"/>
        </g>
        <g transform="matrix(50,0,0,50,1243.69,2365.35)">
            <path d="M0.098,-0.363C0.098,-0.374 0.102,-0.384 0.11,-0.392C0.118,-0.401 0.128,-0.405 0.14,-0.405L0.693,-0.405C0.695,-0.405 0.696,-0.405 0.697,-0.406C0.697,-0.407 0.698,-0.408 0.698,-0.409L0.698,-0.484C0.698,-0.485 0.697,-0.486 0.697,-0.487C0.696,-0.488 0.695,-0.488 0.693,-0.488L0.14,-0.488C0.101,-0.488 0.068,-0.475 0.041,-0.448C0.014,-0.42 0,-0.387 0,-0.349L0,-0.14C0,-0.101 0.014,-0.068 0.041,-0.041C0.068,-0.014 0.101,-0 0.14,-0L0.693,-0C0.695,-0 0.696,-0 0.697,-0.001C0.697,-0.002 0.698,-0.003 0.698,-0.004L0.698,-0.08C0.698,-0.081 0.697,-0.081 0.697,-0.082C0.696,-0.083 0.695,-0.083 0.693,-0.083L0.14,-0.083C0.128,-0.083 0.118,-0.088 0.11,-0.096C0.102,-0.104 0.098,-0.114 0.098,-0.125L0.098,-0.202L0.624,-0.202C0.625,-0.202 0.626,-0.203 0.627,-0.203C0.628,-0.204 0.628,-0.205 0.628,-0.207L0.628,-0.282C0.628,-0.283 0.628,-0.284 0.627,-0.285C0.626,-0.286 0.625,-0.286 0.624,-0.286L0.098,-0.286L0.098,-0.363Z" style="fill:#282828;fill-rule:nonzero;"/>
        </g>
        <g transform="matrix(50,0,0,50,1305.9,2365.35)">
            <path d="M0.726,-0.484C0.726,-0.485 0.725,-0.486 0.724,-0.487C0.724,-0.488 0.722,-0.488 0.721,-0.488L0.542,-0.488C0.539,-0.488 0.535,-0.488 0.532,-0.488C0.514,-0.486 0.497,-0.479 0.484,-0.467C0.47,-0.455 0.46,-0.44 0.453,-0.422L0.363,-0.163L0.272,-0.422C0.266,-0.44 0.256,-0.455 0.242,-0.467C0.228,-0.479 0.212,-0.486 0.193,-0.488C0.19,-0.488 0.187,-0.488 0.184,-0.488L0.004,-0.488C0.003,-0.488 0.002,-0.488 0.001,-0.487C0,-0.486 0,-0.485 0,-0.484L0,-0.004C0,-0.003 0,-0.002 0.001,-0.001C0.002,-0 0.003,-0 0.004,-0L0.093,-0C0.095,-0 0.096,-0 0.096,-0.001C0.097,-0.002 0.098,-0.003 0.098,-0.004L0.098,-0.405L0.151,-0.405C0.169,-0.405 0.182,-0.395 0.191,-0.376L0.322,-0.003C0.323,-0.001 0.325,-0 0.326,-0L0.399,-0C0.401,-0 0.402,-0.001 0.403,-0.003L0.535,-0.376C0.543,-0.395 0.556,-0.405 0.574,-0.405L0.628,-0.405L0.628,-0.004C0.628,-0.003 0.628,-0.002 0.629,-0.001C0.63,-0 0.631,-0 0.632,-0L0.721,-0C0.722,-0 0.724,-0 0.724,-0.001C0.725,-0.002 0.726,-0.003 0.726,-0.004L0.726,-0.484Z" style="fill:#282828;fill-rule:nonzero;"/>
        </g>
    </g>
    <g transform="matrix(1,0,0,1,-343.798,-1085.3)">
        <path d="M1442.18,1386.17L1861.07,1115.8C1917.28,1080.29 1987.59,1075.48 2048.11,1103C2289.83,1212.93 3036.29,1568.05 3036.29,1568.05C3039.53,1569.52 3042.55,1571.28 3045.34,1573.28L2032.84,1148.28C1974.19,1124.49 1908.05,1127.65 1851.95,1156.95L1442.18,1386.17ZM343.798,1456.94L521.393,1207.39C578.112,1127.69 686.462,1076.24 773.598,1120.69L1243.9,1364.01L771.328,1156.95C683.797,1120.39 580.859,1170.68 520.356,1243.74L343.798,1456.94Z" style="fill:#b2b2b2;"/>
    </g>
</svg>
