<?xml version="1.0" encoding="UTF-8" standalone="no"?>
<!DOCTYPE svg PUBLIC "-//W3C//DTD SVG 1.1//EN" "http://www.w3.org/Graphics/SVG/1.1/DTD/svg11.dtd">
<svg width="100%" height="100%" viewBox="0 0 1122 439" version="1.1" xmlns="http://www.w3.org/2000/svg" xmlns:xlink="http://www.w3.org/1999/xlink" xml:space="preserve" xmlns:serif="http://www.serif.com/" style="fill-rule:evenodd;clip-rule:evenodd;stroke-linejoin:round;stroke-miterlimit:2;">
    <g transform="matrix(4.16667,0,0,4.16667,610.151,355.729)">
        <path d="M0,-76.625l1.582,0.142l-22.31,42.682l31.775,33.801l-1.672,0l-32.04,-34.087l22.665,-42.538Z" style="fill:#414242;fill-rule:nonzero;"/>
    </g>
    <g transform="matrix(3.74212,1.83239,1.83239,-3.74212,559.442,73.1741)">
        <path d="M-7.616,0.306l6.681,0l-0.275,-33.12l-6.271,-1.121l-0.135,34.241Z" style="fill:#414242;fill-rule:nonzero;"/>
    </g>
    <g transform="matrix(4.00635,1.14467,1.14467,-4.00635,477.808,185.102)">
        <path d="M-1.882,-0.876l6.37,-0l3.752,-11.994l-11.11,7.942l0.988,4.052Z" style="fill:#686968;fill-rule:nonzero;"/>
    </g>
    <g transform="matrix(4.16667,0,0,4.16667,551.817,355.729)">
        <path d="M0,-85.375l1.516,1.141l-22.891,47.359l29.25,36.875l-2.25,-0l-29.125,-36.75l23.5,-48.625Z" style="fill:#414242;fill-rule:nonzero;"/>
    </g>
    <g transform="matrix(-1.86108,3.72794,3.72794,1.86108,473.447,333.989)">
        <path d="M-14.053,-16.446l28.095,0l-6.472,12.965l-13.944,0.556l-7.331,-13.631" style="fill:#414242;fill-rule:nonzero;"/>
    </g>
    <g transform="matrix(4.16667,0,0,4.16667,396.609,180.837)">
        <path d="M0,-13.401l10.048,13.401l3.521,-9.027l-13.569,-4.374Z" style="fill:#414242;fill-rule:nonzero;"/>
    </g>
    <g transform="matrix(4.16667,0,0,4.16667,371.088,335.938)">
        <path d="M0,-45.875l6.125,-4.75l9.75,11.875l0,19.5l-12.125,24l-7.125,0l14.625,-32.625l-11.25,-18Z" style="fill:#686968;fill-rule:nonzero;"/>
    </g>
    <g transform="matrix(4.16667,0,0,4.16667,3.96167,210.722)">
        <path d="M0,34.748l3.455,-34.552l30.753,0c6.795,-0.196 10.005,3.43 9.63,10.879l-2.353,23.673l-8.698,0l2.058,-20.978c0.49,-2.58 -0.254,-3.837 -2.23,-3.773l-4.607,0.025l-2.475,24.726l-8.674,0l2.45,-24.8l-7.425,-0.023l-2.45,24.823l-9.434,0Z" style="fill:#414242;fill-rule:nonzero;"/>
    </g>
    <g transform="matrix(4.16667,0,0,4.16667,232.054,307.415)">
        <path d="M0,-11.469l-0.392,3.65l15.217,-0l0.319,-2.867c0.49,-2.644 -0.278,-4.123 -2.304,-4.433l-9.213,0.023c-2.451,0.066 -3.66,1.275 -3.627,3.627m-11.786,23.011l2.328,-23.745c1.078,-7.026 5.317,-10.497 12.717,-10.808l11.615,0c6.73,0.458 9.891,3.921 9.483,10.733l-2.352,23.82l-9.116,0l1.054,-10.782l-15.242,-0.075l-1.029,10.857l-9.458,0Z" style="fill:#414242;fill-rule:nonzero;"/>
    </g>
    <g transform="matrix(1.33029,0,0,1.33029,-99.2809,-296.672)">
        <g transform="matrix(50,0,0,50,71.6036,552.308)">
            <path d="M0.141,-0.061l0.129,0c0.1,0 0.179,-0.024 0.236,-0.074c0.058,-0.05 0.093,-0.122 0.104,-0.216c0.003,-0.022 0.004,-0.041 0.004,-0.059c0,-0.16 -0.097,-0.24 -0.291,-0.24l-0.11,-0l-0.072,0.589Zm-0.08,0.061l0.086,-0.711l0.179,0c0.119,0 0.21,0.025 0.272,0.074c0.062,0.049 0.093,0.123 0.093,0.221c-0,0.02 -0.002,0.042 -0.004,0.065c-0.014,0.114 -0.057,0.2 -0.13,0.261c-0.073,0.06 -0.172,0.09 -0.297,0.09l-0.199,-0Z" style="fill:#4d4b4a;fill-rule:nonzero;"/>
        </g>
        <g transform="matrix(50,0,0,50,148.982,552.308)">
            <path d="M0.354,-0.05c0.081,0 0.148,-0.027 0.2,-0.082c0.053,-0.055 0.085,-0.129 0.096,-0.222c0.003,-0.023 0.004,-0.043 0.004,-0.061c-0,-0.077 -0.02,-0.137 -0.059,-0.182c-0.038,-0.044 -0.094,-0.066 -0.166,-0.066c-0.081,-0 -0.149,0.028 -0.202,0.084c-0.054,0.056 -0.086,0.131 -0.098,0.225c-0.002,0.021 -0.004,0.041 -0.004,0.058c0,0.077 0.02,0.137 0.06,0.181c0.04,0.043 0.096,0.065 0.169,0.065Zm-0.007,0.06c-0.094,0 -0.167,-0.027 -0.219,-0.08c-0.053,-0.054 -0.079,-0.127 -0.079,-0.221c-0,-0.023 0.001,-0.044 0.004,-0.063c0.013,-0.112 0.055,-0.202 0.124,-0.269c0.069,-0.067 0.156,-0.1 0.26,-0.1c0.092,-0 0.164,0.027 0.216,0.082c0.052,0.055 0.078,0.129 0.078,0.223c0,0.023 -0.001,0.044 -0.003,0.064c-0.014,0.111 -0.055,0.199 -0.123,0.265c-0.069,0.066 -0.155,0.099 -0.258,0.099Z" style="fill:#4d4b4a;fill-rule:nonzero;"/>
        </g>
        <g transform="matrix(50,0,0,50,228.02,552.308)">
            <path d="M0.061,-0l0.086,-0.711l0.091,0c0.006,0.02 0.033,0.107 0.082,0.261c0.048,0.155 0.085,0.273 0.109,0.355c0.044,-0.082 0.111,-0.2 0.199,-0.355c0.088,-0.154 0.137,-0.241 0.148,-0.261l0.084,0l-0.087,0.711l-0.069,-0l0.072,-0.592l-0.039,0.075l-0.296,0.517l-0.049,-0l-0.163,-0.515l-0.024,-0.089l-0.074,0.604l-0.07,-0Z" style="fill:#4d4b4a;fill-rule:nonzero;"/>
        </g>
        <g transform="matrix(50,0,0,50,314.065,552.308)">
            <path d="M0.221,-0l0.034,-0.285l-0.187,-0.426l0.078,0l0.155,0.363l0.246,-0.363l0.078,0l-0.296,0.425l-0.035,0.286l-0.073,0Z" style="fill:#4d4b4a;fill-rule:nonzero;"/>
        </g>
        <g transform="matrix(50,0,0,50,438.889,552.308)">
            <path d="M0.061,-0l0.086,-0.711l0.208,0c0.08,0 0.14,0.012 0.18,0.034c0.039,0.023 0.059,0.063 0.059,0.12c-0,0.01 -0.001,0.022 -0.003,0.036c-0.008,0.067 -0.034,0.115 -0.079,0.144c-0.044,0.03 -0.109,0.044 -0.194,0.044l-0.144,0l-0.041,0.333l-0.072,-0Zm0.121,-0.393l0.143,0c0.063,0 0.11,-0.009 0.14,-0.029c0.03,-0.019 0.048,-0.052 0.054,-0.099c0.001,-0.009 0.001,-0.018 0.001,-0.025c0,-0.038 -0.013,-0.065 -0.038,-0.081c-0.025,-0.015 -0.064,-0.023 -0.118,-0.023l-0.151,-0l-0.031,0.257Z" style="fill:#4d4b4a;fill-rule:nonzero;"/>
        </g>
        <g transform="matrix(50,0,0,50,509.162,552.308)">
            <path d="M-0.019,-0l0.354,-0.711l0.082,0l0.182,0.711l-0.079,-0l-0.048,-0.192l-0.317,-0l-0.094,0.192l-0.08,-0Zm0.201,-0.249l0.276,0c-0.031,-0.139 -0.061,-0.269 -0.09,-0.391c-0.042,0.087 -0.104,0.218 -0.186,0.391Z" style="fill:#4d4b4a;fill-rule:nonzero;"/>
        </g>
        <g transform="matrix(50,0,0,50,582.463,552.308)">
            <path d="M0.431,-0.214c0,-0.029 -0.009,-0.052 -0.028,-0.068c-0.019,-0.017 -0.053,-0.032 -0.103,-0.047c-0.002,-0.001 -0.02,-0.006 -0.056,-0.016c-0.055,-0.015 -0.095,-0.035 -0.121,-0.06c-0.026,-0.025 -0.039,-0.059 -0.039,-0.103c0,-0.068 0.024,-0.122 0.07,-0.159c0.046,-0.037 0.107,-0.056 0.183,-0.056c0.025,-0 0.048,0.002 0.069,0.005c0.021,0.004 0.038,0.008 0.051,0.013c0.013,0.004 0.026,0.011 0.037,0.018c0.012,0.007 0.02,0.013 0.025,0.017c0.004,0.004 0.009,0.009 0.015,0.015l-0.041,0.05c-0.013,-0.015 -0.033,-0.028 -0.059,-0.04c-0.026,-0.012 -0.059,-0.018 -0.099,-0.018c-0.055,-0 -0.097,0.013 -0.128,0.038c-0.031,0.026 -0.046,0.063 -0.046,0.113c-0,0.027 0.007,0.048 0.023,0.062c0.016,0.015 0.044,0.028 0.086,0.041c0.002,0 0.011,0.003 0.028,0.008c0.017,0.005 0.026,0.007 0.027,0.007c0.067,0.019 0.114,0.041 0.14,0.067c0.027,0.025 0.04,0.058 0.04,0.1c-0,0.075 -0.024,0.133 -0.071,0.175c-0.048,0.042 -0.11,0.062 -0.187,0.062c-0.03,0 -0.058,-0.003 -0.084,-0.009c-0.026,-0.006 -0.048,-0.014 -0.066,-0.023c-0.017,-0.01 -0.031,-0.019 -0.041,-0.026c-0.009,-0.007 -0.018,-0.014 -0.025,-0.021l0.039,-0.052c0.052,0.047 0.113,0.071 0.182,0.071c0.056,0 0.1,-0.014 0.132,-0.043c0.031,-0.029 0.047,-0.07 0.047,-0.121Z" style="fill:#4d4b4a;fill-rule:nonzero;"/>
        </g>
        <g transform="matrix(50,0,0,50,651.076,552.308)">
            <path d="M0.221,-0l0.034,-0.285l-0.187,-0.426l0.078,0l0.155,0.363l0.246,-0.363l0.078,0l-0.296,0.425l-0.035,0.286l-0.073,0Z" style="fill:#4d4b4a;fill-rule:nonzero;"/>
        </g>
        <g transform="matrix(50,0,0,50,721.276,552.308)">
            <path d="M0.189,-0l-0.102,-0.711l0.079,0l0.071,0.548l0.007,0.085l0.032,-0.084l0.23,-0.549l0.073,0c0.007,0.042 0.024,0.137 0.05,0.285c0.026,0.148 0.045,0.262 0.058,0.343c0.038,-0.102 0.114,-0.312 0.229,-0.628l0.074,0l-0.269,0.711l-0.086,-0l-0.104,-0.615l-0.257,0.615l-0.085,-0Z" style="fill:#4d4b4a;fill-rule:nonzero;"/>
        </g>
        <g transform="matrix(50,0,0,50,810.813,552.308)">
            <path d="M0.061,-0l0.086,-0.711l0.076,0l0.298,0.524l0.047,0.088l0.075,-0.612l0.07,0l-0.087,0.711l-0.075,-0l-0.3,-0.518l-0.046,-0.09l-0.075,0.608l-0.069,-0Z" style="fill:#4d4b4a;fill-rule:nonzero;"/>
        </g>
        <g transform="matrix(50,0,0,50,889.509,552.308)">
            <path d="M0.061,-0l0.086,-0.711l0.411,0l-0.007,0.061l-0.338,-0l-0.031,0.254l0.319,-0l-0.007,0.06l-0.32,0l-0.034,0.275l0.353,0l-0.007,0.061l-0.425,-0Z" style="fill:#4d4b4a;fill-rule:nonzero;"/>
        </g>
    </g>
    <g transform="matrix(4.16667,0,0,4.16667,-29.9533,-85.4146)">
        <g transform="matrix(1,0,0,1,140.75,97.7495)">
            <path d="M0,-60.375l12.875,-8.125l-22.25,42.5l31.625,34.125l-15.5,0l-21.634,-27.101l0.009,-12.024l14.875,-29.375Z" style="fill:#ffc30b;fill-rule:nonzero;"/>
        </g>
        <g transform="matrix(1,0,0,1,93.5557,51.2469)">
            <path d="M0,54.07l14.477,-32.149l-11.139,-17.824l5.284,-4.097l9.148,11.29l0,19.163l-11.863,23.617l-5.907,0Z" style="fill:#ffc30b;fill-rule:nonzero;"/>
        </g>
        <g transform="matrix(1,0,0,1,139.625,105.874)">
            <path d="M0,-85.375l-23,48.375l28.875,37l-17,0l-16.375,-24.875l0,-18.625l14,-31.125l13.5,-10.75Z" style="fill:#ffc30b;fill-rule:nonzero;"/>
        </g>
        <g transform="matrix(1,0,0,1,200.884,71.2688)">
            <path d="M0,34.552l-24.186,0c-6.959,-0.408 -9.899,-6.429 -8.821,-17.474c1.078,-11.043 5.366,-16.702 12.864,-17.078l23.549,0l-0.833,8.33l-20.804,0c-1.552,0.018 -2.688,0.565 -3.406,1.643c-1.667,4.248 -2.328,8.494 -1.985,12.742c0.18,1.356 0.996,2.223 2.45,2.598l22.054,0.049l-0.882,9.19Z" style="fill:#ffc30b;fill-rule:nonzero;"/>
        </g>
        <g transform="matrix(1,0,0,1,213.038,88.494)">
            <path d="M0,-0.012c-0.344,3.113 -0.36,4.988 -0.05,5.625c0.49,1.568 1.495,2.498 3.015,2.793l9.605,-0.025c1.633,-0.178 2.778,-0.922 3.431,-2.229c0.8,-0.916 1.355,-3.148 1.666,-6.703c0.311,-3.553 0.065,-5.818 -0.735,-6.799c-0.768,-1.029 -1.96,-1.617 -3.578,-1.764l-7.4,0c-2.141,0.163 -3.659,1.2 -4.558,3.112c-0.587,0.883 -1.053,2.879 -1.396,5.99m15.878,17.339l-16.271,0c-7.237,0.033 -10.251,-5.597 -9.042,-17.277c1.127,-11.81 5.53,-17.21 13.208,-17.275l13.355,0c8.02,-0.147 11.394,5.039 10.12,16.59c-0.539,11.957 -4.329,17.815 -11.37,17.962" style="fill:#ffc30b;fill-rule:nonzero;"/>
        </g>
        <g transform="matrix(1,0,0,1,239.944,71.1218)">
            <path d="M0,34.699l3.455,-34.552l23.303,0c6.73,-0.147 9.908,3.43 9.532,10.879l-2.352,23.673l-9.14,0l2.303,-21.712c0.408,-2.221 -0.416,-3.26 -2.475,-3.111l-12.693,0l-2.451,24.823l-9.482,0Z" style="fill:#ffc30b;fill-rule:nonzero;"/>
        </g>
    </g>
</svg>
