<?xml version="1.0" encoding="UTF-8" standalone="no"?>
<!DOCTYPE svg PUBLIC "-//W3C//DTD SVG 1.1//EN" "http://www.w3.org/Graphics/SVG/1.1/DTD/svg11.dtd">
<svg width="100%" height="100%" viewBox="0 0 300 103" version="1.1" xmlns="http://www.w3.org/2000/svg" xmlns:xlink="http://www.w3.org/1999/xlink" xml:space="preserve" xmlns:serif="http://www.serif.com/" style="fill-rule:evenodd;clip-rule:evenodd;stroke-linejoin:round;stroke-miterlimit:2;">
    <g transform="matrix(1.3545,0,0,1.25649,-89.8974,-144.977)">
        <ellipse cx="112.5" cy="188.086" rx="46.131" ry="9.253" style="fill:url(#_Radial1);"/>
    </g>
    <g transform="matrix(1.3545,0,0,1.25649,85.1349,-144.977)">
        <ellipse cx="112.5" cy="188.086" rx="46.131" ry="9.253" style="fill:url(#_Radial2);"/>
    </g>
    <g transform="matrix(0.0615309,0,0,0.0710356,-4.20326,-29.961)">
        <path d="M626.363,759.424c0,-27.743 -26.003,-50.266 -58.032,-50.266c0,0 -101.662,0 -101.662,0c-32.029,0 -58.032,22.523 -58.032,50.266l0,422.152c0,27.743 26.003,50.266 58.032,50.266c0,0 101.662,0 101.662,0c32.029,0 58.032,-22.523 58.032,-50.266l0,-422.152Zm-22.726,0l0,422.152c0,16.878 -15.82,30.582 -35.306,30.582l-101.662,0c-19.486,0 -35.306,-13.704 -35.306,-30.582c0,0 0,-422.152 0,-422.152c0,-16.878 15.82,-30.582 35.306,-30.582l101.662,0c19.486,0 35.306,13.704 35.306,30.582Z" style="fill:#6a5454;"/>
    </g>
    <g transform="matrix(0.057459,0,0,0.0710356,67.3761,-29.961)">
        <path d="M627.168,744.686c0,-19.609 -19.681,-35.528 -43.923,-35.528c0,0 -131.49,0 -131.49,0c-24.242,0 -43.923,15.919 -43.923,35.528l0,451.628c0,19.609 19.681,35.528 43.923,35.528c0,0 131.49,0 131.49,0c24.242,0 43.923,-15.919 43.923,-35.528c0,0 0,-451.628 0,-451.628Zm-24.336,0l0,451.628c0,8.744 -8.777,15.844 -19.587,15.844l-131.49,0c-10.81,0 -19.587,-7.1 -19.587,-15.844c0,0 0,-451.628 0,-451.628c0,-8.744 8.777,-15.844 19.587,-15.844l131.49,0c10.81,0 19.587,7.1 19.587,15.844Z" style="fill:#6a5454;"/>
    </g>
    <g transform="matrix(0.271912,0,0,0.0710356,-78.2308,-29.961)">
        <path d="M615,765.276c0,-25.541 -5.417,-46.276 -12.089,-46.276l-170.822,0c-6.672,0 -12.089,20.735 -12.089,46.276l0,410.448c0,25.541 5.417,46.276 12.089,46.276l170.822,0c6.672,0 12.089,-20.735 12.089,-46.276l0,-410.448Z" style="fill:#278fe0;fill-opacity:0.43;"/>
    </g>
    <g transform="matrix(0.271912,0,0,0.0710356,-78.2308,-29.961)">
        <path d="M617.173,765.276c0,-30.131 -6.391,-54.593 -14.262,-54.593c0,0 -170.822,0 -170.822,0c-7.871,0 -14.262,24.462 -14.262,54.593l0,410.448c0,30.131 6.391,54.593 14.262,54.593c0,0 170.822,0 170.822,0c7.871,0 14.262,-24.462 14.262,-54.593l0,-410.448Zm-4.346,0l0,410.448c0,20.95 -4.443,37.959 -9.916,37.959l-170.822,0c-5.473,0 -9.916,-17.009 -9.916,-37.959c0,0 0,-410.448 0,-410.448c0,-20.95 4.443,-37.959 9.916,-37.959l170.822,0c5.473,0 9.916,17.009 9.916,37.959Z" style="fill:#278fe0;"/>
    </g>
    <g transform="matrix(0.0882245,0,0,0.0882245,-13.2509,-43.9731)">
        <path d="M612.176,865.867l87,-87c2.135,-2.134 2.135,-5.6 0,-7.734c-2.134,-2.135 -5.6,-2.135 -7.735,0l-87,87c-2.134,2.134 -2.134,5.6 0,7.734c2.135,2.135 5.601,2.135 7.735,0Z" style="fill:#e7e8e9;"/>
    </g>
    <g transform="matrix(0.176253,0,0,0.174476,-66.7993,-110.818)">
        <path d="M610.235,863.965l87,-87c1.074,-1.073 1.082,-2.826 0.019,-3.911c-1.063,-1.084 -2.797,-1.093 -3.871,-0.019l-87,87c-1.074,1.073 -1.083,2.826 -0.02,3.911c1.063,1.084 2.798,1.093 3.872,0.019Z" style="fill:#e7e8e9;"/>
    </g>
    <g transform="matrix(1.52369e-18,-0.0248838,0.224683,1.37579e-17,-148.19,28.6997)">
        <path d="M615,724.399c0,-2.98 -21.844,-5.399 -48.75,-5.399l-97.5,0c-26.906,0 -48.75,2.419 -48.75,5.399l0,492.202c0,2.98 21.844,5.399 48.75,5.399l97.5,0c26.906,0 48.75,-2.419 48.75,-5.399l0,-492.202Z" style="fill:#6a5454;"/>
    </g>
    <g transform="matrix(1.52369e-18,-0.0248838,0.224683,1.37579e-17,-148.19,28.6997)">
        <path d="M643.097,724.399c0,-4.697 -34.434,-8.511 -76.847,-8.511l-97.5,0c-42.413,0 -76.847,3.814 -76.847,8.511l0,492.202c0,4.697 34.434,8.511 76.847,8.511c0,0 97.5,0 97.5,0c42.413,0 76.847,-3.814 76.847,-8.511c0,0 0,-492.202 0,-492.202Zm-56.194,0l0,492.202c0,1.262 -9.254,2.287 -20.653,2.287l-97.5,0c-11.399,0 -20.653,-1.025 -20.653,-2.287c0,0 0,-492.202 0,-492.202c0,-1.262 9.254,-2.287 20.653,-2.287c0,0 97.5,0 97.5,0c11.399,0 20.653,1.025 20.653,2.287Z" style="fill:none;"/>
    </g>
    <g transform="matrix(0.141801,0,0,0.141801,-32.8871,-76.1548)">
        <rect x="1963.82" y="773.314" width="74.353" height="113.004" style="fill:#278fe0;fill-opacity:0.3;"/>
    </g>
    <g transform="matrix(0.141801,0,0,0.141801,-32.8871,-76.1548)">
        <path d="M2044.63,773.314c0,-3.566 -2.891,-6.458 -6.458,-6.458l-74.353,0c-3.567,0 -6.458,2.892 -6.458,6.458l0,113.004c0,3.567 2.891,6.459 6.458,6.459l74.353,0c3.567,0 6.458,-2.892 6.458,-6.459l0,-113.004Zm-74.353,6.459l0,100.087l61.436,0l0,-100.087l-61.436,0Z" style="fill:#6a5454;fill-opacity:0.3;"/>
    </g>
    <g transform="matrix(0.141801,0,0,0.141801,-29.7675,-73.6506)">
        <path d="M2078.39,731.234c0,-2.047 -0.97,-3.973 -2.616,-5.191l-185.913,-137.603c-2.296,-1.699 -5.437,-1.688 -7.721,0.027l-185.851,139.584c-1.625,1.22 -2.58,3.133 -2.58,5.164l0,168c0,12.389 11.332,22.921 25.923,22.921l332.835,0c14.933,-0.001 25.923,-10.58 25.923,-22.921c0,0 0,-169.981 0,-169.981Zm-12.916,3.255l-179.427,-132.802l-179.422,134.754l0,164.774c0,5.875 6.088,10.004 13.007,10.004c0,0 332.835,0 332.835,0c7.081,0 13.007,-4.152 13.007,-10.004l0,-166.726Zm-42.848,19.791c0,-3.567 -2.891,-6.459 -6.458,-6.459l-74.353,0c-3.567,0 -6.458,2.892 -6.458,6.459l0,114.378c0,3.567 2.891,6.459 6.458,6.459l74.353,0c3.567,0 6.458,-2.892 6.458,-6.459l0,-114.378Zm-74.353,6.458l0,101.462l61.436,0l0,-101.462l-61.436,0Z" style="fill:#939598;"/>
    </g>
    <g id="Home" transform="matrix(0.141801,0,0,0.141801,-29.7675,-48.3031)">
        <path d="M1685.52,530.377l-15.092,0c-21.37,0 -25.788,-9.723 -9.849,-21.733l217.028,-163.523c7.931,-5.976 20.794,-5.974 28.724,0l115.845,87.284l0,-2.791c0,-13.107 12.374,-23.732 27.881,-23.732c15.398,0 27.883,10.492 27.883,23.732l0,44.808l45.42,34.222c15.93,12.003 11.527,21.733 -9.851,21.733l-12.169,0l-201.439,-149.094l-2.976,-1.661c-1.1,-0.284 -2.199,-0.568 -3.299,-0.852c-2.995,0.011 -3.858,-0.274 -6.701,0.887c-1.051,0.43 -1.976,1.121 -2.964,1.682l-198.441,149.038Z" style="fill:#6a5454;"/>
    </g>
    <g transform="matrix(0.526172,0,0,0.526172,-533.471,-385.563)">
        <g transform="matrix(50,0,0,50,1301.63,807.977)">
            <path d="M0.026,-0.531l0.073,0l0.178,0.387l0.176,-0.387l0.073,0l-0.243,0.531l-0.012,0l-0.245,-0.531Z" style="fill:#231f20;fill-rule:nonzero;"/>
        </g>
        <g transform="matrix(50,0,0,50,1329.34,807.977)">
            <path d="M0.343,-0.473l-0.044,0.045c-0.036,-0.035 -0.072,-0.053 -0.107,-0.053c-0.022,0 -0.041,0.007 -0.057,0.022c-0.016,0.015 -0.024,0.032 -0.024,0.051c0,0.018 0.007,0.034 0.02,0.05c0.013,0.016 0.04,0.034 0.082,0.056c0.051,0.026 0.086,0.052 0.104,0.076c0.018,0.025 0.027,0.052 0.027,0.083c0,0.044 -0.016,0.081 -0.046,0.111c-0.031,0.031 -0.069,0.046 -0.115,0.046c-0.031,0 -0.06,-0.007 -0.088,-0.02c-0.028,-0.014 -0.051,-0.032 -0.069,-0.056l0.043,-0.048c0.035,0.039 0.072,0.059 0.111,0.059c0.027,0 0.051,-0.009 0.07,-0.027c0.019,-0.017 0.029,-0.038 0.029,-0.062c0,-0.019 -0.007,-0.037 -0.019,-0.052c-0.013,-0.015 -0.042,-0.034 -0.086,-0.057c-0.048,-0.024 -0.081,-0.049 -0.098,-0.073c-0.018,-0.024 -0.026,-0.051 -0.026,-0.082c0,-0.041 0.014,-0.074 0.041,-0.101c0.028,-0.027 0.062,-0.04 0.105,-0.04c0.048,0 0.098,0.024 0.147,0.072Z" style="fill:#231f20;fill-rule:nonzero;"/>
        </g>
    </g>
    <defs>
        <radialGradient id="_Radial1" cx="0" cy="0" r="1" gradientUnits="userSpaceOnUse" gradientTransform="matrix(44.6292,0,0,8.25884,112.5,188.086)"><stop offset="0" style="stop-color:#000;stop-opacity:0.2"/><stop offset="1" style="stop-color:#000;stop-opacity:0"/></radialGradient>
        <radialGradient id="_Radial2" cx="0" cy="0" r="1" gradientUnits="userSpaceOnUse" gradientTransform="matrix(44.6292,0,0,8.25884,112.5,188.086)"><stop offset="0" style="stop-color:#000;stop-opacity:0.2"/><stop offset="1" style="stop-color:#000;stop-opacity:0"/></radialGradient>
    </defs>
</svg>
