<?xml version="1.0" encoding="UTF-8" standalone="no"?>
<!DOCTYPE svg PUBLIC "-//W3C//DTD SVG 1.1//EN" "http://www.w3.org/Graphics/SVG/1.1/DTD/svg11.dtd">
<svg width="100%" height="100%" viewBox="0 0 100 90" version="1.1" xmlns="http://www.w3.org/2000/svg" xmlns:xlink="http://www.w3.org/1999/xlink" xml:space="preserve" xmlns:serif="http://www.serif.com/" style="fill-rule:evenodd;clip-rule:evenodd;stroke-linejoin:round;stroke-miterlimit:2;">
    <g transform="matrix(0.0764645,0,0,0.0764645,-34.666,-184.43)">
        <path d="M733.65,3062.94l-3.616,-574c-0.032,-4.983 -4.103,-9.003 -9.086,-8.972c-4.983,0.032 -9.003,4.103 -8.972,9.086l3.617,574c0.031,4.983 4.102,9.003 9.085,8.972c4.984,-0.032 9.004,-4.103 8.972,-9.086Z" style="fill:#6a5454;"/>
    </g>
    <g transform="matrix(0.0764645,0,0,0.0764645,-28.5307,-184.43)">
        <path d="M733.65,3062.94l-3.616,-574c-0.032,-4.983 -4.103,-9.003 -9.086,-8.972c-4.983,0.032 -9.003,4.103 -8.972,9.086l3.617,574c0.031,4.983 4.102,9.003 9.085,8.972c4.984,-0.032 9.004,-4.103 8.972,-9.086Z" style="fill:#6a5454;"/>
    </g>
    <g transform="matrix(0.0764645,0,0,0.0764645,-22.7183,-184.43)">
        <path d="M733.65,3062.94l-3.616,-574c-0.032,-4.983 -4.103,-9.003 -9.086,-8.972c-4.983,0.032 -9.003,4.103 -8.972,9.086l3.617,574c0.031,4.983 4.102,9.003 9.085,8.972c4.984,-0.032 9.004,-4.103 8.972,-9.086Z" style="fill:#6a5454;"/>
    </g>
    <g transform="matrix(1.04004,0,0,1.1075,-4.15002,-26.7628)">
        <path d="M85.825,38.303c0,-2.238 -1.936,-4.056 -4.319,-4.056l-30.059,0c-2.384,0 -4.319,1.818 -4.319,4.056l0,8.112c0,2.239 1.935,4.056 4.319,4.056l30.059,0c2.383,0 4.319,-1.817 4.319,-4.056l0,-8.112Z" style="fill:#278fe0;fill-opacity:0.33;"/>
    </g>
    <g transform="matrix(0.0764645,0,0,0.0751794,-19.0629,-180.842)">
        <path d="M902.045,2544.82c-41.27,0 -74.726,34.027 -74.726,76.002c0,32.614 0,71.748 0,104.362c0,41.975 33.456,76.002 74.726,76.002c106.83,0 315.835,0 411.145,0c15.522,0 30.409,-6.271 41.385,-17.435c10.975,-11.163 17.142,-26.304 17.142,-42.092c0,-40.417 0,-96.895 0,-137.312c0,-15.788 -6.167,-30.929 -17.142,-42.092c-10.976,-11.164 -25.863,-17.435 -41.385,-17.435c-95.31,0 -304.315,0 -411.145,0Zm0,18.366c106.83,0 315.835,0 411.145,0c10.733,0 21.026,4.337 28.616,12.056c7.589,7.719 11.853,18.189 11.853,29.105c0,40.417 0,96.895 0,137.312c0,10.916 -4.264,21.386 -11.853,29.105c-7.59,7.719 -17.883,12.056 -28.616,12.056c-95.31,0 -304.315,0 -411.145,0c-31.297,0 -56.668,-25.805 -56.668,-57.636c0,-32.614 0,-71.748 0,-104.362c0,-31.831 25.371,-57.636 56.668,-57.636Z" style="fill:#278fe0;"/>
    </g>
    <g transform="matrix(0.0764645,0,0,0.0764645,-19.0629,-184.43)">
        <path d="M469.145,2430.03l730.971,0c14.055,0 27.533,5.583 37.471,15.521c9.938,9.938 15.521,23.417 15.521,37.471l0,30.979c0,4.983 4.046,9.029 9.029,9.029c4.984,0 9.029,-4.046 9.029,-9.029l0,-30.979c0,-18.843 -7.485,-36.915 -20.81,-50.24c-13.324,-13.324 -31.396,-20.81 -50.24,-20.81l-730.971,0c-4.983,0 -9.029,4.046 -9.029,9.029c0,4.983 4.046,9.029 9.029,9.029Z" style="fill:#6a5454;"/>
    </g>
    <g transform="matrix(0.0764645,0,0,0.0764645,-19.0629,-184.43)">
        <path d="M1253.11,2845l0,69.349c0,24.092 -19.53,43.622 -43.621,43.622c-0.001,0 -0.002,0 -0.003,0c-33.251,0 -60.494,26.404 -61.532,59.64c-0.719,22.998 -1.41,45.107 -1.41,45.107c-0.156,4.981 3.762,9.151 8.743,9.307c4.981,0.155 9.151,-3.762 9.306,-8.743c0,0 0.691,-22.109 1.41,-45.107c0.734,-23.487 19.985,-42.146 43.483,-42.146c0.001,0 0.002,0 0.003,0c34.064,0 61.679,-27.615 61.679,-61.68l0,-69.349c0,-4.983 -4.045,-9.029 -9.029,-9.029c-4.983,0 -9.029,4.046 -9.029,9.029Z" style="fill:#6a5454;"/>
    </g>
    <g transform="matrix(1.078,0,0,1,-71.5466,-107.995)">
        <ellipse cx="112.5" cy="188.086" rx="46.131" ry="9.253" style="fill:url(#_Radial1);"/>
    </g>
    <defs>
        <radialGradient id="_Radial1" cx="0" cy="0" r="1" gradientUnits="userSpaceOnUse" gradientTransform="matrix(44.6292,0,0,8.25884,112.5,188.086)"><stop offset="0" style="stop-color:#000;stop-opacity:0.2"/><stop offset="1" style="stop-color:#000;stop-opacity:0"/></radialGradient>
    </defs>
</svg>
