<?xml version="1.0" encoding="UTF-8" standalone="no"?>
<!DOCTYPE svg PUBLIC "-//W3C//DTD SVG 1.1//EN" "http://www.w3.org/Graphics/SVG/1.1/DTD/svg11.dtd">
<svg width="100%" height="100%" viewBox="0 0 102 103" version="1.1" xmlns="http://www.w3.org/2000/svg" xmlns:xlink="http://www.w3.org/1999/xlink" xml:space="preserve" xmlns:serif="http://www.serif.com/" style="fill-rule:evenodd;clip-rule:evenodd;stroke-linejoin:round;stroke-miterlimit:2;">
    <g transform="matrix(1.10131,0,0,1.02162,-73.0936,-98.6059)">
        <ellipse cx="112.5" cy="188.086" rx="46.131" ry="9.253" style="fill:url(#_Radial1);"/>
    </g>
    <g transform="matrix(0.105367,0,0,0.105367,-94.9573,-131.815)">
        <circle cx="1381.07" cy="1684.5" r="266.5" style="fill:#278fe0;fill-opacity:0.19;"/>
    </g>
    <g transform="matrix(0.105367,0,0,0.105367,-94.9573,-131.815)">
        <path d="M1381.07,1410.01c-151.493,0 -274.486,122.993 -274.486,274.486c0,151.493 122.993,274.486 274.486,274.486c151.493,0 274.486,-122.993 274.486,-274.486c0,-151.493 -122.993,-274.486 -274.486,-274.486Zm0,15.972c142.677,0 258.514,115.836 258.514,258.514c0,142.678 -115.837,258.514 -258.514,258.514c-142.678,0 -258.514,-115.836 -258.514,-258.514c0,-142.678 115.836,-258.514 258.514,-258.514Z" style="fill:#939598;"/>
    </g>
    <g transform="matrix(0.105367,0,0,0.0570935,-94.9573,-66.7565)">
        <path d="M1411.75,1377.19c0,-7.831 -3.445,-14.188 -7.688,-14.188l-41.375,0c-4.243,0 -7.688,6.357 -7.688,14.188l0,28.375c0,7.83 3.445,14.188 7.688,14.188l41.375,0c4.243,0 7.688,-6.358 7.688,-14.188l0,-28.375Z" style="fill:#278fe0;fill-opacity:0.19;"/>
    </g>
    <g transform="matrix(0.105367,0,0,0.0570935,-94.9573,-66.7565)">
        <path d="M1419.74,1377.19c0,-15.965 -7.023,-28.926 -15.674,-28.926l-41.375,0c-8.651,0 -15.674,12.961 -15.674,28.926c0,0 0,28.375 0,28.375c0,15.965 7.023,28.926 15.674,28.926c0,0 41.375,0 41.375,0c8.651,0 15.674,-12.961 15.674,-28.926l0,-28.375Zm-56.751,0.55l0,27.274l40.779,0l0,-27.274l-40.779,0Z" style="fill:#939598;"/>
    </g>
    <g transform="matrix(0.105367,0,0,0.105367,-94.9573,-135.503)">
        <path d="M1466.27,1311.25c0,-9.521 -7.73,-17.25 -17.25,-17.25l-127.297,0c-9.521,0 -17.25,7.729 -17.25,17.25l0,34.5c0,9.521 7.729,17.25 17.25,17.25l127.297,0c9.52,0 17.25,-7.729 17.25,-17.25l0,-34.5Z" style="fill:#278fe0;fill-opacity:0.19;"/>
    </g>
    <g transform="matrix(0.105367,0,0,0.105367,-94.9573,-135.503)">
        <path d="M1474.26,1311.25c0,-13.928 -11.308,-25.236 -25.236,-25.236c0,0 -127.297,0 -127.297,0c-13.928,0 -25.236,11.308 -25.236,25.236l0,34.5c0,13.928 11.308,25.236 25.236,25.236l127.297,0c13.928,0 25.236,-11.308 25.236,-25.236l0,-34.5Zm-15.972,0l0,34.5c0,5.113 -4.152,9.264 -9.264,9.264c0,0 -127.297,0 -127.297,0c-5.113,0 -9.264,-4.151 -9.264,-9.264c0,0 0,-34.5 0,-34.5c0,-5.113 4.151,-9.264 9.264,-9.264l127.297,0c5.112,0 9.264,4.151 9.264,9.264Z" style="fill:#939598;"/>
    </g>
    <g transform="matrix(0.105367,0,0,0.105367,-94.9573,-131.815)">
        <g opacity="0.3">
            <g transform="matrix(-0.707107,-0.707107,0.707107,-0.707107,1176.47,3853.66)">
                <path d="M1410.13,1486.05c0,-8.619 -6.997,-15.616 -15.616,-15.616c0,0 -6.094,0 -6.094,0c-8.619,0 -15.616,6.997 -15.616,15.616l0,43.906c0,8.619 6.997,15.616 15.616,15.616c0,0 6.094,0 6.094,0c8.619,0 15.616,-6.997 15.616,-15.616c0,0 0,-43.906 0,-43.906Z" style="fill:#6a5454;"/>
            </g>
            <g transform="matrix(0,-1,1,0,-297.433,3073.66)">
                <path d="M1410.13,1486.05c0,-8.619 -6.997,-15.616 -15.616,-15.616l-6.094,0c-8.619,0 -15.616,6.997 -15.616,15.616c0,0 0,43.906 0,43.906c0,8.619 6.997,15.616 15.616,15.616c0,0 6.094,0 6.094,0c8.619,0 15.616,-6.997 15.616,-15.616l0,-43.906Z" style="fill:#6a5454;"/>
            </g>
            <g transform="matrix(0.707107,-0.707107,0.707107,0.707107,-788.097,1479.91)">
                <path d="M1410.13,1486.05c0,-8.619 -6.997,-15.616 -15.616,-15.616c0,0 -6.094,0 -6.094,0c-8.619,0 -15.616,6.997 -15.616,15.616l0,43.906c0,8.619 6.997,15.616 15.616,15.616c0,0 6.094,0 6.094,0c8.619,0 15.616,-6.997 15.616,-15.616l0,-43.906Z" style="fill:#6a5454;"/>
            </g>
        </g>
    </g>
    <g transform="matrix(-0.105367,0,0,0.105367,196.079,-131.815)">
        <path d="M1381.07,1418c-147.184,0 -266.5,119.316 -266.5,266.5c0,147.085 119.414,266.5 266.5,266.5c23.462,0 46.821,-3.098 69.472,-9.214l-69.472,-257.286l0,-266.5Z" style="fill:#278fe0;fill-opacity:0.45;"/>
    </g>
    <g transform="matrix(-0.105367,0,0,0.105367,196.079,-131.815)">
        <path d="M1390.58,1683.24l0,-265.238c0,-5.254 -4.26,-9.514 -9.514,-9.514c-152.439,0 -276.014,123.576 -276.014,276.014c0,152.336 123.678,276.014 276.014,276.014c24.299,0 48.492,-3.209 71.952,-9.543c5.073,-1.37 8.074,-6.593 6.705,-11.665l-69.143,-256.068Zm-19.028,-255.549l0,256.811c0,0.838 0.11,1.671 0.329,2.48l66.945,247.929c-18.933,4.369 -38.31,6.577 -57.76,6.577c-141.835,0 -256.986,-115.152 -256.986,-256.986c0,-138.75 109.959,-251.818 247.472,-256.811Z" style="fill:#fff;"/>
    </g>
    <g transform="matrix(0.105367,0,0,0.105367,-94.9573,-131.815)">
        <g transform="matrix(1,0,0,1,-8.09381,6)">
            <path d="M1410.13,1486.05c0,-8.619 -6.997,-15.616 -15.616,-15.616c0,0 -6.094,0 -6.094,0c-8.619,0 -15.616,6.997 -15.616,15.616l0,43.906c0,8.619 6.997,15.616 15.616,15.616l6.094,0c8.619,0 15.616,-6.997 15.616,-15.616c0,0 0,-43.906 0,-43.906Z" style="fill:#278fe0;"/>
        </g>
        <g transform="matrix(1,0,0,1,-8.09381,6)">
            <path d="M1423.05,1486.05c0,-15.748 -12.785,-28.533 -28.533,-28.533l-6.094,0c-15.748,0 -28.533,12.785 -28.533,28.533l0,43.906c0,15.748 12.785,28.533 28.533,28.533l6.094,0c15.748,0 28.533,-12.785 28.533,-28.533c0,0 0,-43.906 0,-43.906Zm-12.917,0c0,-8.619 -6.997,-15.616 -15.616,-15.616c0,0 -6.094,0 -6.094,0c-8.619,0 -15.616,6.997 -15.616,15.616l0,43.906c0,8.619 6.997,15.616 15.616,15.616l6.094,0c8.619,0 15.616,-6.997 15.616,-15.616c0,0 0,-43.906 0,-43.906Z" style="fill:#fff;"/>
        </g>
        <g transform="matrix(0.707107,0.707107,-0.707107,0.707107,1585.66,-484.664)">
            <path d="M1410.13,1486.05c0,-8.619 -6.997,-15.616 -15.616,-15.616c0,0 -6.094,0 -6.094,0c-8.619,0 -15.616,6.997 -15.616,15.616c0,0 0,43.906 0,43.906c0,8.619 6.997,15.616 15.616,15.616l6.094,0c8.619,0 15.616,-6.997 15.616,-15.616l0,-43.906Z" style="fill:#278fe0;"/>
        </g>
        <g transform="matrix(0.707107,0.707107,-0.707107,0.707107,1585.66,-484.664)">
            <path d="M1423.05,1486.05c0,-15.748 -12.785,-28.533 -28.533,-28.533c0,0 -6.094,0 -6.094,0c-15.748,0 -28.533,12.785 -28.533,28.533l0,43.906c0,15.748 12.785,28.533 28.533,28.533c0,0 6.094,0 6.094,0c15.748,0 28.533,-12.785 28.533,-28.533l0,-43.906Zm-12.917,0c0,-8.619 -6.997,-15.616 -15.616,-15.616c0,0 -6.094,0 -6.094,0c-8.619,0 -15.616,6.997 -15.616,15.616c0,0 0,43.906 0,43.906c0,8.619 6.997,15.616 15.616,15.616l6.094,0c8.619,0 15.616,-6.997 15.616,-15.616l0,-43.906Z" style="fill:#fff;"/>
        </g>
        <g transform="matrix(0,1,-1,0,3059.57,295.339)">
            <path d="M1410.13,1486.05c0,-8.619 -6.997,-15.616 -15.616,-15.616c0,0 -6.094,0 -6.094,0c-8.619,0 -15.616,6.997 -15.616,15.616c0,0 0,43.906 0,43.906c0,8.619 6.997,15.616 15.616,15.616l6.094,0c8.619,0 15.616,-6.997 15.616,-15.616c0,0 0,-43.906 0,-43.906Z" style="fill:#278fe0;"/>
        </g>
        <g transform="matrix(0,1,-1,0,3059.57,295.339)">
            <path d="M1423.05,1486.05c0,-15.748 -12.785,-28.533 -28.533,-28.533c0,0 -6.094,0 -6.094,0c-15.748,0 -28.533,12.785 -28.533,28.533l0,43.906c0,15.748 12.785,28.533 28.533,28.533l6.094,0c15.748,0 28.533,-12.785 28.533,-28.533c0,0 0,-43.906 0,-43.906Zm-12.917,0c0,-8.619 -6.997,-15.616 -15.616,-15.616c0,0 -6.094,0 -6.094,0c-8.619,0 -15.616,6.997 -15.616,15.616c0,0 0,43.906 0,43.906c0,8.619 6.997,15.616 15.616,15.616l6.094,0c8.619,0 15.616,-6.997 15.616,-15.616c0,0 0,-43.906 0,-43.906Z" style="fill:#fff;"/>
        </g>
        <g transform="matrix(-0.707107,0.707107,-0.707107,-0.707107,3550.23,1889.09)">
            <path d="M1410.13,1486.05c0,-8.619 -6.997,-15.616 -15.616,-15.616c0,0 -6.094,0 -6.094,0c-8.619,0 -15.616,6.997 -15.616,15.616l0,43.906c0,8.619 6.997,15.616 15.616,15.616l6.094,0c8.619,0 15.616,-6.997 15.616,-15.616c0,0 0,-43.906 0,-43.906Z" style="fill:#278fe0;"/>
        </g>
        <g transform="matrix(-0.707107,0.707107,-0.707107,-0.707107,3550.23,1889.09)">
            <path d="M1423.05,1486.05c0,-15.748 -12.785,-28.533 -28.533,-28.533c0,0 -6.094,0 -6.094,0c-15.748,0 -28.533,12.785 -28.533,28.533l0,43.906c0,15.748 12.785,28.533 28.533,28.533l6.094,0c15.748,0 28.533,-12.785 28.533,-28.533c0,0 0,-43.906 0,-43.906Zm-12.917,0c0,-8.619 -6.997,-15.616 -15.616,-15.616c0,0 -6.094,0 -6.094,0c-8.619,0 -15.616,6.997 -15.616,15.616l0,43.906c0,8.619 6.997,15.616 15.616,15.616l6.094,0c8.619,0 15.616,-6.997 15.616,-15.616c0,0 0,-43.906 0,-43.906Z" style="fill:#fff;"/>
        </g>
        <g transform="matrix(-1,0,0,-1,2770.23,3363)">
            <path d="M1410.13,1486.05c0,-8.619 -6.997,-15.616 -15.616,-15.616c0,0 -6.094,0 -6.094,0c-8.619,0 -15.616,6.997 -15.616,15.616c0,0 0,43.906 0,43.906c0,8.619 6.997,15.616 15.616,15.616c0,0 6.094,0 6.094,0c8.619,0 15.616,-6.997 15.616,-15.616l0,-43.906Z" style="fill:#278fe0;"/>
        </g>
        <g transform="matrix(-1,0,0,-1,2770.23,3363)">
            <path d="M1423.05,1486.05c0,-15.748 -12.785,-28.533 -28.533,-28.533c0,0 -6.094,0 -6.094,0c-15.748,0 -28.533,12.785 -28.533,28.533c0,0 0,43.906 0,43.906c0,15.748 12.785,28.533 28.533,28.533l6.094,0c15.748,0 28.533,-12.785 28.533,-28.533l0,-43.906Zm-12.917,0c0,-8.619 -6.997,-15.616 -15.616,-15.616c0,0 -6.094,0 -6.094,0c-8.619,0 -15.616,6.997 -15.616,15.616c0,0 0,43.906 0,43.906c0,8.619 6.997,15.616 15.616,15.616c0,0 6.094,0 6.094,0c8.619,0 15.616,-6.997 15.616,-15.616l0,-43.906Z" style="fill:#fff;"/>
        </g>
    </g>
    <defs>
        <radialGradient id="_Radial1" cx="0" cy="0" r="1" gradientUnits="userSpaceOnUse" gradientTransform="matrix(44.6292,0,0,8.25884,112.5,188.086)"><stop offset="0" style="stop-color:#000;stop-opacity:0.2"/><stop offset="1" style="stop-color:#000;stop-opacity:0"/></radialGradient>
    </defs>
</svg>
